<svg xmlns="http://www.w3.org/2000/svg" width="261.91" height="123.78"><style>.st1{fill-rule:evenodd;fill:#fff}</style><path d="M72.39 87.86v-.35c0-.67.08-1.33.2-1.79.17-.48.5-1.5 1.6-2.49.75-.64 1.57-1.02 2.33-1.15.73.07 1.38.34 1.72.77.15.21.17.5.1.73-.09.17-.17.32-.38.46-.18.16-.35.16-.59-.04-.34-.36-.97-.73-1.65-.73-.61 0-.95.22-1.26.63-.27.39-.56 1.43-.56 3.23v.73h2.52c.12.19.02.71-.21.88H73.9v6.09c0 1.54.12 1.6 1.84 1.79v.56h-4.9v-.6c1.38-.11 1.55-.25 1.55-1.61v-6.23h-1.5l-.1-.23.56-.65zm6.53 4.2c0 2.67 1.2 4.62 3.06 4.62 1.39 0 2.51-1.06 2.51-3.89 0-2.36-1.05-4.43-2.99-4.43-1.35 0-2.58 1.29-2.58 3.7m2.81-4.45c2.56 0 4.58 2.09 4.58 4.74 0 3.5-2.55 5.08-4.58 5.08-2.87 0-4.62-2.33-4.62-4.69 0-3.57 2.72-5.13 4.59-5.13zm8.26 4.45c0 2.67 1.2 4.62 3.06 4.62 1.39 0 2.51-1.06 2.51-3.89 0-2.36-1.06-4.43-2.99-4.43-1.36 0-2.58 1.29-2.58 3.7m2.8-4.45c2.56 0 4.58 2.09 4.58 4.74 0 3.5-2.54 5.08-4.58 5.08-2.87 0-4.61-2.33-4.61-4.69 0-3.57 2.72-5.13 4.59-5.13zm13.42 1.92c-.58-.75-1.5-1.06-2.29-1.06-1.06 0-2.89.85-2.89 3.85 0 2.49 1.54 3.77 2.97 3.77.82 0 1.67-.41 2.21-.76zm3.18 7.11c-.46.08-2.02.35-3.18.79v-1.39l-1.31.75c-.88.49-1.51.64-1.75.64-1.68 0-3.86-1.56-3.86-4.53 0-2.96 2.62-5.29 5.42-5.29.33 0 1.04.06 1.5.3v-2.94c0-1.41-.08-1.48-1.68-1.55v-.57c1.07-.16 2.47-.52 3.2-.77v12.65c0 1.07.17 1.16.93 1.22l.73.09zm10.95-12.6c-1.02 0-1.77.85-1.77 2.14 0 1.04.67 1.8 1.96 2.72 1.06-.79 1.6-1.62 1.62-2.66-.02-1.18-.77-2.2-1.79-2.2zm-.2 12.04c1.49 0 2.8-1.01 3.52-2.04-.97-1.14-2.34-2.45-4.4-4.07-1.52 1.04-2.1 2.03-2.1 3.11 0 1.99 1.55 3 2.95 3zm9.33-7.32c-1.47.14-1.75.51-2.46 1.58-.51.81-1.04 1.7-1.8 2.85.83.83 2.8 3.04 3.38 4.18l-.14.25c-1-.13-2.14-.63-2.41-.9-.25-.31-1.17-1.35-1.81-2.06-1.56 2.1-3.04 2.83-4.58 2.83-2.67 0-4.17-2.01-4.17-3.87 0-1.97 1.36-2.8 3.2-4.18-.96-.87-1.55-1.75-1.55-2.89 0-1.89 1.58-3.26 3.47-3.26 1.65 0 3.06 1.2 3.05 2.91 0 .88-.43 1.47-.87 1.85-.4.35-.86.75-1.65 1.31.71.61 2.21 1.89 3.52 3.25.51-.77.85-1.5 1.27-2.52.39-.96.12-1.16-1.36-1.33v-.66h4.91zm12.41.77c-.58-.75-1.5-1.06-2.29-1.06-1.06 0-2.89.85-2.89 3.85 0 2.49 1.54 3.77 2.97 3.77.82 0 1.67-.41 2.21-.76zm3.18 7.11c-.46.08-2.02.35-3.18.79v-1.39l-1.31.75c-.88.49-1.51.64-1.75.64-1.68 0-3.86-1.56-3.86-4.53 0-2.96 2.62-5.29 5.42-5.29.33 0 1.04.06 1.5.3v-2.94c0-1.41-.08-1.48-1.68-1.55v-.57c1.07-.16 2.47-.52 3.2-.77v12.65c0 1.07.17 1.16.93 1.22l.73.09zm4.04-6.79c.64-1.05 1.54-2.24 2.62-2.24.75 0 1.22.54 1.22 1.05 0 .37-.2.76-.61.97-.26.08-.42.07-.56-.04-.29-.33-.55-.44-.88-.44-.6 0-1.37.73-1.83 2.01v3.76c0 1.41.09 1.55 1.77 1.66v.6h-4.81v-.6c1.4-.11 1.55-.25 1.55-1.65v-4.32c0-1.44-.09-1.49-1.36-1.64v-.55c.98-.17 1.9-.43 2.85-.87v2.3zm6.05-5.17c0-.63.49-1.08 1.07-1.08.56 0 1 .45 1 1.08 0 .54-.44 1.04-1.02 1.04-.56 0-1.05-.5-1.05-1.04m-1.12 12.5v-.6c1.38-.11 1.55-.25 1.55-1.66v-4.39c0-1.29-.04-1.38-1.4-1.56v-.55c1.09-.2 2.02-.46 2.89-.87v7.37c0 1.41.15 1.55 1.54 1.66v.6zm11.75 0v-.6c1.31-.15 1.48-.32 1.48-1.75v-3.5c0-1.49-.5-2.49-2.02-2.49-.92 0-1.8.57-2.48 1.18v4.9c0 1.47.11 1.51 1.46 1.66v.6h-4.51v-.6c1.43-.15 1.56-.27 1.56-1.65v-4.32c0-1.37-.14-1.46-1.31-1.64v-.55c1.02-.18 1.97-.43 2.8-.87v1.69c.42-.31.88-.6 1.41-.99.59-.34 1.19-.64 1.84-.64 1.66 0 2.72 1.17 2.72 3.21v4.1c0 1.45.13 1.51 1.42 1.66v.6zm13.1.02c-1.13-1.19-2.44-2.81-3.71-4.22-.29-.36-.48-.46-.66-.46-.11 0-.25.02-.4.09v2.32c0 1.4.19 1.54 1.6 1.64v.61h-4.67v-.61c1.46-.1 1.6-.31 1.6-1.64v-9.86c0-1.45-.13-1.58-1.48-1.65v-.57c1.08-.14 2.25-.52 2.95-.77v9.95c.7-.15 1.04-.4 1.4-.72.46-.47 1.07-1.31 1.49-1.89.43-.58.4-.76-.59-.87v-.6l4.34-.23v.6c-1.45.25-1.96.52-2.79 1.29-.53.5-.92.92-1.87 2.04.42.6 2.62 3.06 3.35 3.76.73.73 1.31 1.12 2.19 1.16v.61zm8.64-6.77c-.39-1.31-1.1-2.13-2.12-2.13-.85 0-1.41.65-1.41 1.52 0 1 .88 1.48 1.8 1.83 1.58.65 2.7 1.41 2.7 2.86 0 1.92-1.8 2.92-3.48 2.92-1.11 0-2.11-.42-2.44-.73-.17-.31-.37-1.75-.37-2.5l.66-.1c.36 1.43 1.25 2.6 2.54 2.6.78 0 1.58-.62 1.58-1.56 0-.94-.71-1.43-1.69-1.91-1.41-.64-2.7-1.29-2.7-2.92 0-1.45 1.25-2.7 3.18-2.7.87 0 1.43.2 1.87.38.21.48.41 1.69.5 2.27zM21.07 47.98c0-.1.02-.23.05-.4v-.55c-.03-.1-.06-.2-.08-.3-.01-.1-.02-.23-.02-.4-.13-.3-.22-.56-.25-.79-.07-.23-.13-.52-.2-.85-.56-1.59-1.41-2.69-2.54-3.29-.99.7-1.5 1.25-1.5 1.65v10.41h.11c.13-.03.25-.08.37-.13s.5-.24 1.17-.57v.05a6.36 6.36 0 001.67-1.72c.45-.68.8-1.47 1.07-2.36 0-.07.01-.14.02-.2.02-.07.05-.15.08-.25s.05-.2.05-.3m5.03 22.07h-.15l-.05.05h-.15l-.05.05h-.2c-.49 0-1.01-.1-1.54-.3-.53-.2-1.06-.53-1.59-1-.97-.76-1.57-1.56-1.8-2.39l-3.98 3.79c-2.26-1.3-4.06-2-5.39-2.09h-.59c-.24 0-.49-.02-.75-.06-.27 0-.51 0-.72-.02-.22-.02-.41-.02-.58-.02-2.49 0-4.7.79-6.62 2.39.36-1.86 1.46-3.44 3.29-4.73a12.92 12.92 0 014.93-2.3c.36-.03.8-.08 1.29-.15.5-.06 1.03-.15 1.6-.25.06.04.15.06.25.06.13 0 .25.01.34.04.27.07.59.13.95.18.37.05.78.12 1.25.22.16.04.56.16 1.2.38.63.21 1.47.5 2.53.87l.3-.45-.04-.1c-.17-.4-.3-1.06-.41-1.99-.56-4.35-1.52-6.68-2.89-6.98v2.69c0 1.73-1.14 3.11-3.43 4.14-.87.43-1.51.65-1.95.65l-.09.04h-.1l-.1.06h-.75c.36-.44.64-.83.82-1.18.18-.34.27-.7.27-1.07v-14.5c0-.39.02-.63.06-.69 0-1.23.59-2.26 1.79-3.09v-.1l8.32-4.83c1.99.93 3.32 2.65 3.98 5.18.04.16.06.3.08.42.02.12.04.24.07.37 0 .07.01.14.03.2.02.07.02.14.02.2v.7c0 1.63-.49 3.29-1.49 4.98-.83 1.5-1.94 2.68-3.34 3.54 1.99.96 3.27 2.82 3.84 5.58 0-.06.01-.02.05.15.03.17.06.32.1.45.03.17.05.32.07.47.02.15.06.32.13.53 0 .23.18.94.54 2.14.33.96.62 1.59.85 1.89.4.5.96.75 1.7.75.06-.03.13-.06.19-.08.07-.01.14-.04.2-.07h-.05c.14-.07.33-.13.58-.2.25-.07.5-.13.77-.2zM10.21 43.79l.35.05c-.07.07-.15.24-.25.5 0-.07-.03-.01-.08.15-.05.17-.11.33-.17.5 0 .2-.03.43-.1.7l-.1.49-.05 13.75c0 .57-.17 1.15-.52 1.72-.35.59-.86 1.23-1.52 1.92-1.43 1.33-2.83 2-4.19 2 .6-.74.9-1.35.9-1.85V56.8l-.2-.2-.2-.1h-.1l-.05-.05c-.17.07-.38.23-.65.5 0 .06-.01.12-.05.17-.03.05-.05.11-.05.18l-.05.04v.21l-.15-.16v.35c-.06 0-.1.02-.1.05h-.04.04c-.06.04-.16.05-.29.05-1.07 0-1.67-.89-1.8-2.69l-.05-.1v-.3c0-1.06.34-1.93 1-2.61.66-.68 1.56-1.06 2.69-1.12v-.4l-.05-.1v-.25c0-1.56.45-2.81 1.34-3.74.7-.7 1.78-1.46 3.24-2.29.27-.13.49-.25.68-.35.18-.1.4-.18.67-.25zm4.48-5.68c-.13.77-.38 1.47-.74 2.12-.37.65-.81 1.21-1.33 1.69-.51.49-1.1.87-1.76 1.15-.67.28-1.36.44-2.1.47v.05h-.25c-1.13 0-2.1-.21-2.93-.65h.09-.04c0-.03-.02-.04-.05-.04-.17 0-.29-.02-.35-.05h.04c-1.19-.37-1.87-.55-2.04-.55-.93 0-2.01.64-3.23 1.94v-.6c0-.93.14-1.69.44-2.29.23-.5.53-.96.9-1.39.36-.43.77-.82 1.22-1.15.45-.33.91-.61 1.4-.82.48-.22.95-.33 1.42-.33l.05-.05h.2c.46 0 1.44.25 2.93.75l.05.05h.06c.92.5 1.79.75 2.59.75l.14-.15c.04 0 .1.01.18.03.08.01.14.02.17.02l.05.05c.2 0 .6-.15 1.2-.45.66-.3 1.08-.53 1.24-.7.04 0 .07-.01.1-.05zm31.84 14.6c-.2-.46-.38-.93-.55-1.39l-.4.09v6.38l2.69-1.74c-.13-.2-.29-.46-.47-.77-.18-.32-.39-.73-.62-1.22-.24-.43-.45-.89-.65-1.35m7.22 2.54c-.4.2-1.19.64-2.36 1.32-1.18.68-2.79 1.62-4.81 2.82-.3.16-.63.38-1 .65v3.73c1.03.17 1.99.38 2.87.65.88.27 1.7.58 2.46.95l1.2-1.25 1.24 1.14-4.53 4.99-.5-.25c-.7-.37-1.38-.71-2.04-1.02-.67-.32-1.43-.56-2.29-.73-1.47-.29-2.73-.44-3.79-.44-.4 0-.8.02-1.19.07-.4.05-.8.11-1.2.18.07-.17.13-.31.2-.43.06-.11.13-.2.2-.27v.05c.23-.37.42-.67.57-.9.15-.23.24-.36.27-.4.24-.3.69-.7 1.35-1.19V52.86c0-.5-.27-1.33-.8-2.49v-.7l.45.45h.3l.05.05h.15l.15.05h.2c2.62 0 5.58-1.1 8.87-3.29.16.6.38 1.25.64 1.94.27.7.63 1.48 1.1 2.35.43.76.84 1.47 1.22 2.11.38.65.74 1.21 1.07 1.67zm22.62-2.44c-.56.23-1.16.35-1.79.35-.97 0-2.06-.48-3.29-1.45-.1.04-.17.07-.2.11h-.2c-.2.09-.38.14-.55.14v6.28h.55c.26-.16.64-.48 1.12-.94.48-.47 1.11-1.08 1.87-1.85 1.13-1.2 1.96-2.07 2.49-2.64m-1.64 13.2v-6.27l-.1-.1h-2.54l-2.59 2.59c-.24.23-.5.52-.8.87-.3.35-.67.74-1.1 1.17.4-.07.75-.12 1.05-.18.3-.04.53-.07.7-.07 1.72 0 3.2.76 4.43 2.29l.2-.1c.16-.03.33-.08.5-.15h.2zm6.42-18.08c-.86 2.66-2.69 5.41-5.48 8.27l4.69-.1c0 .03-.01.1-.03.2-.02.1-.02.17-.02.2-.04.07-.05.15-.05.25l-.05.05v.1l-.1.1v.09l-.05.11c0 .06-.01.11-.03.14-.01.04-.02.07-.02.1v-.05c-.04.11-.07.23-.1.38-.04.15-.05.21-.05.17v8.47c0 .07.01.12.05.15v.15l.05.1v-.05c.03.04.05.07.05.1l.05.25-.05-.1c-.07-.07-.05-.02.05.15.1.17.2.33.3.5l.2.4c-.37 0-.59-.02-.65-.05h.05c-.04-.04-.09-.05-.15-.05-.4 0-.73-.01-1-.03-.26-.01-.48-.07-.65-.17-.49 0-.79-.02-.89-.05h-.3c-2.53 0-4.6.86-6.23 2.59l-1.44-1.45c-.27-.23-.52-.4-.75-.52-.24-.12-.5-.17-.8-.17-.2-.1-.48-.15-.85-.15-1.52 0-2.59.73-3.18 2.19h-1.45c.27-1.16.73-2.35 1.4-3.56.66-1.22 1.56-2.52 2.69-3.91l.2-.2c.1-.11.22-.24.37-.4.15-.17.32-.35.52-.55l-3.29-.15.35-.35-.05.15c.3-.4.45-.81.45-1.24l.05-.1-.05-8.67c0-.04-.01-.06-.02-.08a.09.09 0 01-.03-.07v.05c-.03-.04-.05-.12-.05-.25l-.15-.35v-.05a.45.45 0 01-.1-.3v-.45c.34.3.68.45 1.05.45.23.13.81.2 1.74.2.04.03.2.05.5.05 1.53 0 3.01-.38 4.44-1.15.13-.06.79-.69 1.99-1.89 1.06 1.23 2.06 1.84 2.99 1.84.96 0 1.74-.48 2.34-1.44l1.34-.1zm16 22.37c-1.8-1.69-3.52-2.54-5.19-2.54-.79 0-1.39.3-1.79.89v-.69c0-.14.15-.53.45-1.2.46-1.06 1.11-1.81 1.94-2.24V52.01h-.89c-.24.14-.5.24-.8.3-.03.04-.19.09-.45.15l-.1.1h-.1l-.55.3v-.35c0-.13.02-.23.05-.3v-.15l.05-.1c0-.13.02-.23.05-.3v-.39c0-.1.01-.2.03-.3.01-.1.04-.22.07-.35v-.3l-.05-.15v-.5c-.13-.36-.2-.98-.2-1.84.43.23.8.4 1.1.5.3.1.53.16.7.2.06-.04.29-.05.69-.05h.4v-2.3l-.05-.1v-.49a.997.997 0 00-.1-.25.775.775 0 01-.07-.23.826.826 0 00-.08-.22v-.05c-.06-.07-.1-.22-.1-.45l.35-.1.05.1h.25v.05c1.93 0 3.75-1.06 5.48-3.19v.7l-.05.05a.88.88 0 00-.07.3c-.02.13-.06.3-.13.5v.05c0 .09-.01.18-.05.25-.13.56-.2.97-.2 1.24v4.14h1.6l.1.05c.56 0 1.18-.24 1.84-.7 0 .03-.01.12-.02.27-.02.15-.03.24-.03.28-.03.06-.05.16-.05.29-.1.2-.15.64-.15 1.3h.05c0 .73.1 1.69.3 2.89l-.6-.3-.05-.05h-.05c-.36-.13-.79-.24-1.27-.32-.48-.08-1.04-.14-1.67-.18v11.91c.24.23.52.35.85.35.2.07.32.12.35.15.1.1.2.15.3.15.03.03.07.06.12.07.05.02.09.05.13.08h-.05c.1.06.23.16.4.27.16.12.35.24.54.38l.5-.55 1.05 1.19zm23.71-4.69h.05l.05-.04V53.71c-.46 0-.96-.35-1.49-1.05-.73.93-1.65 1.4-2.74 1.4l-.1.05h-1.35c-.1 0-.2-.02-.3-.05l5.58 6.33-1.24 1.09-3.09-3.34c-.33.63-.57 1.19-.7 1.67s-.2.91-.2 1.27c0 1.3.42 2.41 1.25 3.34.89 1 1.92 1.5 3.09 1.5.53 0 .93-.1 1.19-.31m5.18 4.49h-.05l-.05.05h-.19l-.06.05h-.14l-.05.05h-.4c-.8 0-1.63-.37-2.49-1.1-.34-.33-.64-.64-.9-.92-.27-.28-.48-.59-.65-.92l-3.39 2.89h-.3c-1.42 0-2.82-.42-4.18-1.25a7.34 7.34 0 01-1.62-1.49c-.42-.53-.71-1.13-.87-1.79-.14-.44-.2-1.05-.2-1.85 0-2.62 1.51-4.96 4.53-7.02-.06-.1-.2-.28-.42-.53-.22-.25-.54-.6-.97-1.07-.27-.3-.56-.64-.87-1.02-.32-.38-.68-.8-1.08-1.27h.05c-.33-.2-.84-.68-1.54-1.44 2.39-.87 4.3-2.16 5.73-3.89l.25.3.05.1c.16.17.4.45.7.87.29.42.53.75.69 1.02v-.05c.57.73 1.15 1.1 1.75 1.1h-.1l.25-.1c.06.07.13.1.2.1.66 0 1.67-.9 3.04-2.69l.04-.1c.07-.1.13-.18.18-.25.05-.07.21-.23.47-.5 0 .3.02.46.05.5-.03 0-.01.06.08.17.08.12.19.24.32.38v-.05c.86 1.06 1.69 1.59 2.49 1.59.37 0 1-.15 1.89-.45v.4c0 1.43-.71 2.56-2.14 3.39v10.31c0 .63.24 1.14.7 1.52.46.38 1.05.59 1.75.63l.04-.05h.55zm28.9.15c-2.59-.63-4.07-2.03-4.44-4.19-.06.04-.1.07-.12.1-.02.04-.06.07-.12.1-.37.24-.78.52-1.25.85-.46.33-1.03.73-1.69 1.2-.3.23-.63.5-.98.82-.34.31-.75.7-1.21 1.17-2.1-1.93-3.84-2.89-5.24-2.89-.66 0-1.21.16-1.64.5.3-1.7 1.03-2.84 2.19-3.44V53.81c-.17-.43-.51-.8-1.04-1.1l.04.05c-.16-.07-.36-.12-.59-.15-.24-.03-.43-.08-.6-.15a.492.492 0 00-.2-.05h-.45v-.35l4.83-4.98c2.26 1.16 3.39 2.67 3.39 4.54v12.2c.2.17.72.37 1.55.6-.04 0-.1-.02-.2-.05-.1-.03-.12-.03-.05 0 .3.2.55.37.77.52.21.15.39.28.52.37l.1-.09.1-.05c.07-.04.11-.07.13-.1.01-.04.05-.07.12-.1v.05c.13-.07.27-.17.4-.3.13-.13.33-.3.6-.5.1 0 .2-.05.3-.15l.3-.15-.1-10.51h-.05l-.1-.05-.15-.05-.23-.23c-.08-.08-.19-.2-.32-.37l-1 .5-.94-1.4c1.06-.33 2.85-1.76 5.38-4.28 1.69 1.79 2.9 2.69 3.63 2.69.3 0 .55-.03.75-.1l.1-.1.05-.05h.1l.05-.05h.1l.05-.05h.35c0 1.99-.83 3.24-2.49 3.74v9.76c0 1.7.79 2.54 2.39 2.54h.1l.1-.05c.26 0 .64-.09 1.14-.3l.2.35zm28.25-16.89c-.77.83-1.75 1.24-2.94 1.24-.96 0-1.9-.43-2.79-1.29l-1.35 1.4v8.96c.07.04.17.07.3.1.13.04.28.07.45.1h-.05c.66.07 1.35.45 2.04 1.15l.9-.9 1.09 1.2-5.13 4.98c-1.86-1.76-3.6-2.64-5.23-2.64-.33 0-.62.04-.87.12-.25.09-.51.16-.77.23l-.65.25c0-1.03.52-2.06 1.55-3.09.2-.2.37-.35.52-.45.15-.1.27-.18.37-.25l-.1.05.15-.15h.15l.05-.05V54.01a3.85 3.85 0 00-.77-.83c-.28-.21-.61-.4-.97-.57-.1-.03-.25-.08-.45-.15a3.12 3.12 0 00-.42-.12c-.22-.05-.38-.09-.48-.13 2.06-1.19 3.67-2.92 4.84-5.18 1.75.9 2.92 2.49 3.48 4.79l.45-.6c.17-.17.33-.34.5-.53.17-.18.35-.39.55-.62.63-.63 1.33-1.54 2.09-2.74v-.15l.4-.05c.6 1.89 1.48 2.84 2.64 2.84.4 0 .93-.3 1.59-.89v1.14c0 1.26-.38 2.31-1.14 3.14m20.13 12.25h.05l.05-.04V53.71c-.47 0-.97-.35-1.5-1.05-.73.93-1.64 1.4-2.74 1.4l-.1.05h-1.34c-.1 0-.2-.02-.3-.05l5.58 6.33-1.25 1.09-3.09-3.34c-.33.63-.56 1.19-.7 1.67-.13.48-.19.91-.19 1.27 0 1.3.41 2.41 1.24 3.34.9 1 1.93 1.5 3.09 1.5.53 0 .93-.1 1.2-.31m5.18 4.49h-.05l-.05.05h-.2l-.05.05H208l-.05.05h-.4c-.8 0-1.63-.37-2.49-1.1-.33-.33-.63-.64-.89-.92-.27-.28-.49-.59-.65-.92l-3.39 2.89h-.3c-1.43 0-2.82-.42-4.19-1.25-.66-.46-1.2-.96-1.61-1.49a4.76 4.76 0 01-.88-1.79c-.13-.44-.2-1.05-.2-1.85 0-2.62 1.51-4.96 4.54-7.02-.07-.1-.21-.28-.43-.53-.21-.25-.54-.6-.97-1.07-.26-.3-.55-.64-.87-1.02-.31-.38-.67-.8-1.07-1.27h.05c-.33-.2-.85-.68-1.55-1.44 2.4-.87 4.31-2.16 5.73-3.89l.25.3.05.1c.17.17.4.45.7.87.3.42.53.75.7 1.02v-.05c.56.73 1.14 1.1 1.74 1.1h-.1l.25-.1c.07.07.13.1.2.1.67 0 1.68-.9 3.04-2.69l.05-.1c.07-.1.12-.18.17-.25.05-.07.21-.23.48-.5 0 .3.01.46.05.5-.04 0-.01.06.07.17.09.12.19.24.32.38v-.05c.87 1.06 1.7 1.59 2.5 1.59.36 0 .99-.15 1.89-.45v.4c0 1.43-.71 2.56-2.14 3.39v10.31c0 .63.23 1.14.7 1.52.46.38 1.04.59 1.74.63l.05-.05h.55zm28.55.25c-.47-.03-.93-.15-1.4-.35-.46-.2-.92-.47-1.35-.8-.79-.63-1.19-1.41-1.19-2.34V53.81c-.13 0-.23-.02-.3-.05h-.1l-.05-.05-.2-.1h.05c-.53-.13-.96-.32-1.29-.55-.34-.23-.63-.53-.9-.9l-2.04 1.65v10.46c.4.17.76.33 1.09.5.33.17.6.33.8.49.37.24.69.5.97.78s.54.57.77.87l-4.63 3.34c-1.79-1.69-3.62-2.54-5.48-2.54h-.15l-.05.05h-.25l-.05.05h-.2l-.05.05h-.5c.27-1.3 1.05-2.33 2.35-3.09V53.56c-.6-1-1.43-1.5-2.5-1.5l-.09-.05h-.25v-.35l5.08-5.08c.53.47.98.89 1.37 1.27.38.39.69.76.92 1.13.53.83.81 1.7.85 2.64l5.88-4.94c1.39 1.93 2.47 2.89 3.23 2.89.37 0 1.22-.28 2.54-.84v.69l-.04.1v.5l-.05.1c0 .8-.45 1.64-1.35 2.54v11.61c0 .67.5.99 1.49.99h.2l.05-.04h.4l.05-.05h.65zm20.02-.05c-1.79-1.69-3.52-2.54-5.18-2.54-.8 0-1.39.3-1.79.89v-.69c0-.14.15-.53.45-1.2.46-1.06 1.11-1.81 1.94-2.24V52.01h-.9c-.23.14-.5.24-.79.3-.04.04-.19.09-.45.15l-.1.1h-.1l-.55.3v-.35c0-.13.01-.23.05-.3v-.15l.05-.1c0-.13.02-.23.05-.3v-.39c0-.1.01-.2.02-.3.02-.1.05-.22.08-.35v-.3l-.05-.15v-.5c-.13-.36-.2-.98-.2-1.84.43.23.8.4 1.1.5.3.1.53.16.69.2.07-.04.3-.05.7-.05h.4v-2.3l-.05-.1v-.49c-.03-.1-.07-.19-.1-.25-.03-.07-.06-.14-.08-.23a.808.808 0 00-.07-.22v-.05c-.07-.07-.1-.22-.1-.45l.35-.1.05.1h.25v.05c1.93 0 3.75-1.06 5.48-3.19v.7l-.05.05c-.03.07-.06.16-.08.3-.01.13-.05.3-.12.5v.05c0 .09-.02.18-.05.25-.13.56-.2.97-.2 1.24v4.14h1.6l.1.05c.56 0 1.17-.24 1.84-.7 0 .03-.01.12-.03.27-.01.15-.02.24-.02.28-.03.06-.05.16-.05.29-.1.2-.15.64-.15 1.3h.05c0 .73.1 1.69.3 2.89l-.6-.3-.05-.05h-.05c-.36-.13-.79-.24-1.27-.32-.48-.08-1.04-.14-1.67-.18v11.91c.23.23.52.35.85.35.2.07.31.12.35.15.1.1.2.15.3.15.03.03.07.06.12.07.05.02.09.05.13.08h-.05c.09.06.23.16.39.27.17.12.35.24.55.38l.5-.55 1.05 1.19z" fill="#fff"/><path class="st1" d="M122.47 3.3c-8.43-1.03-14.35 4.07-20.66 8.91-3.14 2.4-6.57 4.34-10.03 5.85-2.04.89-12.98 5.09-20.79-.16 8.55 4.53 18.09-.33 19.72-1.12 7.07-3.44 9.73-6.15 14.03-8.92 7.17-4.62 11.8-5.54 17.73-4.56"/><path class="st1" d="M112.07 3.45c-8.93-2.78-17.53 4.51-27.8 10.96-1.89 1.18-3.98 2.31-6.02 3.12-5.8 2.1-12.25 1.85-16.41-3.76C57.64 6.96 60.5 1.41 64.13.25c4.21-1.33 7.85 2.86 8.26 7.03.17 1.7-.4 3.36-1.37 4.69-.97 1.35-3.67 2.49-5.73-.49 2.28 2.73 4.69 1.62 5.65.19 2.6-3.9-.84-11.34-5.97-10.59-3.64.53-6.17 5.85-2.94 11.65 1 1.81 3.06 3.28 4.8 4.12 5.75 2.77 11.14-.97 16.32-4.03 6.57-3.89 12-7.52 18.85-9.48 3.74-1.06 6.67-1.15 10.07.11"/><path class="st1" d="M90.27 12.31c.7 0 1.27.57 1.27 1.27 0 .7-.57 1.27-1.27 1.27-.7 0-1.27-.57-1.27-1.27 0-.7.57-1.27 1.27-1.27m3.83-2.09a1.071 1.071 0 010 2.14 1.071 1.071 0 010-2.14m-7.69 4.4c.58 0 1.06.48 1.06 1.06 0 .58-.48 1.05-1.06 1.05-.58 0-1.06-.47-1.06-1.05 0-.58.48-1.06 1.06-1.06m11.02-6.33c.51 0 .94.42.94.94 0 .51-.43.94-.94.94a.939.939 0 110-1.88M82.82 16.6a.896.896 0 11.008 1.793.896.896 0 01-.008-1.793m17.52-10a.781.781 0 010 1.56.781.781 0 010-1.56M79.63 17.67c.39 0 .71.33.71.72a.715.715 0 11-1.43 0c0-.39.32-.72.72-.72m-2.61.7a.51.51 0 010 1.02c-.28 0-.51-.23-.51-.51s.23-.51.51-.51m25.87-13.25a.66.66 0 11.001 1.321.66.66 0 01-.001-1.321m2.43-.91a.555.555 0 11-.01 1.11.555.555 0 01.01-1.11m2.33-.49c.26 0 .47.21.47.46a.47.47 0 11-.94 0c0-.25.21-.46.47-.46m2.22-.22c.21 0 .38.17.38.38 0 .2-.17.38-.38.38s-.38-.18-.38-.38c0-.21.17-.38.38-.38m21.58-.2c8.43-1.03 14.35 4.07 20.65 8.91 3.14 2.4 6.58 4.34 10.03 5.85 2.05.89 12.99 5.09 20.79-.16-8.54 4.53-18.08-.33-19.71-1.12-7.07-3.44-9.73-6.15-14.03-8.92-7.17-4.62-11.81-5.54-17.73-4.56"/><path class="st1" d="M141.85 3.45c8.93-2.78 17.53 4.51 27.8 10.96 1.89 1.18 3.98 2.31 6.01 3.12 5.81 2.1 12.25 1.85 16.42-3.76 4.19-6.81 1.34-12.36-2.3-13.52-4.2-1.33-7.85 2.86-8.26 7.03-.16 1.7.41 3.36 1.37 4.69.98 1.35 3.68 2.49 5.74-.49-2.28 2.73-4.69 1.62-5.65.19-2.6-3.9.83-11.34 5.96-10.59 3.65.53 6.18 5.85 2.95 11.65-1 1.81-3.06 3.28-4.8 4.12-5.75 2.77-11.14-.97-16.32-4.03-6.57-3.89-12.01-7.52-18.85-9.48-3.74-1.06-6.67-1.15-10.07.11"/><path class="st1" d="M163.65 12.31c-.7 0-1.27.57-1.27 1.27 0 .7.57 1.27 1.27 1.27.7 0 1.27-.57 1.27-1.27 0-.7-.57-1.27-1.27-1.27m-3.83-2.09a1.071 1.071 0 000 2.14 1.071 1.071 0 000-2.14m7.69 4.4c-.59 0-1.06.48-1.06 1.06 0 .58.47 1.05 1.06 1.05.58 0 1.05-.47 1.05-1.05 0-.58-.47-1.06-1.05-1.06m-11.02-6.33a.939.939 0 10-.002 1.878.939.939 0 00.002-1.878m14.6 8.31c-.49 0-.89.4-.89.9 0 .49.4.89.89.89a.894.894 0 100-1.79m-17.51-10a.781.781 0 000 1.56.781.781 0 000-1.56m20.71 11.07a.73.73 0 00-.72.72c0 .4.33.72.72.72.4 0 .72-.32.72-.72 0-.39-.32-.72-.72-.72m2.61.7c-.28 0-.5.23-.5.51s.22.51.5.51.51-.23.51-.51-.23-.51-.51-.51M151.03 5.12c-.37 0-.66.3-.66.66 0 .37.29.66.66.66.36 0 .65-.29.65-.66 0-.36-.29-.66-.65-.66m-2.43-.91a.555.555 0 000 1.11.555.555 0 000-1.11m-2.33-.49c-.26 0-.47.21-.47.46 0 .26.21.47.47.47a.465.465 0 000-.93m-2.22-.22a.38.38 0 00-.38.38c0 .2.17.38.38.38s.38-.18.38-.38a.38.38 0 00-.38-.38m-15.34 118.99c3.29.4 5.59-1.59 8.05-3.47 1.22-.94 2.56-1.7 3.91-2.29.8-.34 5.06-1.98 8.11.07-3.34-1.77-7.05.12-7.69.43-2.76 1.34-3.79 2.4-5.47 3.48-2.79 1.8-4.6 2.16-6.91 1.78"/><path class="st1" d="M132.76 122.43c3.48 1.08 6.84-1.76 10.84-4.27.74-.47 1.55-.91 2.35-1.22 2.26-.82 4.77-.72 6.4 1.46 1.63 2.66.52 4.83-.9 5.28-1.64.52-3.06-1.12-3.22-2.75-.06-.66.16-1.3.54-1.82.38-.53 1.43-.97 2.23.19-.89-1.07-1.83-.64-2.2-.07-1.02 1.51.32 4.42 2.32 4.12 1.42-.2 2.41-2.28 1.15-4.54-.39-.71-1.19-1.28-1.87-1.6-2.24-1.09-4.34.37-6.36 1.57-2.56 1.51-4.68 2.93-7.35 3.69-1.46.42-2.6.45-3.93-.04"/><path class="st1" d="M141.26 118.98a.5.5 0 01-.49-.5c0-.27.22-.49.49-.49s.5.22.5.49-.23.5-.5.5m-1.49.81c-.23 0-.42-.19-.42-.42 0-.23.19-.41.42-.41.23 0 .41.18.41.41 0 .23-.18.42-.41.42m3-1.72c-.23 0-.41-.18-.41-.41 0-.23.18-.41.41-.41.22 0 .41.18.41.41 0 .23-.19.41-.41.41m-4.3 2.47c-.2 0-.37-.16-.37-.36 0-.2.17-.37.37-.37.2 0 .37.17.37.37 0 .2-.17.36-.37.36m5.69-3.24a.34.34 0 01-.34-.35c0-.19.15-.35.34-.35.2 0 .35.16.35.35 0 .2-.15.35-.35.35m-6.82 3.9a.31.31 0 01-.31-.3c0-.17.14-.31.31-.31.16 0 .3.14.3.31 0 .16-.14.3-.3.3m8.07-4.32a.28.28 0 01-.28-.28c0-.15.13-.28.28-.28.16 0 .28.13.28.28 0 .16-.12.28-.28.28m1.02-.27a.2.2 0 01-.2-.2c0-.11.09-.19.2-.19.11 0 .2.08.2.19a.2.2 0 01-.2.2m-10.09 5.17c-.14 0-.26-.12-.26-.26s.12-.26.26-.26.26.12.26.26-.12.26-.26.26m-.94.35c-.12 0-.22-.09-.22-.21s.1-.22.22-.22c.11 0 .21.1.21.22s-.1.21-.21.21m-.91.19c-.1 0-.19-.08-.19-.18 0-.1.09-.18.19-.18s.18.08.18.18c0 .1-.08.18-.18.18m-.87.09c-.08 0-.15-.07-.15-.15 0-.08.07-.15.15-.15.08 0 .15.07.15.15 0 .08-.07.15-.15.15m-8.41.08c-3.29.4-5.6-1.59-8.06-3.47a18.68 18.68 0 00-3.91-2.29c-.79-.34-5.06-1.98-8.1.07 3.33-1.77 7.05.12 7.69.43 2.75 1.34 3.79 2.4 5.47 3.48 2.79 1.8 4.6 2.16 6.91 1.78"/><path class="st1" d="M121.15 122.43c-3.48 1.08-6.83-1.76-10.84-4.27-.73-.47-1.55-.91-2.34-1.22-2.26-.82-4.77-.72-6.4 1.46-1.64 2.66-.52 4.83.9 5.28 1.63.52 3.06-1.12 3.22-2.75.06-.66-.16-1.3-.54-1.82-.38-.53-1.43-.97-2.23.19.88-1.07 1.82-.64 2.2-.07 1.01 1.51-.33 4.42-2.33 4.12-1.42-.2-2.4-2.28-1.14-4.54.39-.71 1.19-1.28 1.87-1.6 2.24-1.09 4.34.37 6.36 1.57 2.56 1.51 4.68 2.93 7.35 3.69 1.45.42 2.6.45 3.92-.04"/><path class="st1" d="M112.66 118.98a.5.5 0 00.49-.5.49.49 0 00-.49-.49c-.28 0-.5.22-.5.49s.22.5.5.5m1.49.81c.23 0 .41-.19.41-.42 0-.23-.18-.41-.41-.41-.23 0-.42.18-.42.41 0 .23.19.42.42.42m-3-1.72c.23 0 .41-.18.41-.41 0-.23-.18-.41-.41-.41-.23 0-.41.18-.41.41 0 .23.18.41.41.41m4.3 2.47c.2 0 .36-.16.36-.36 0-.2-.16-.37-.36-.37-.2 0-.37.17-.37.37 0 .2.17.36.37.36m-5.7-3.24c.19 0 .35-.15.35-.35 0-.19-.16-.35-.35-.35-.19 0-.35.16-.35.35 0 .2.16.35.35.35m6.83 3.9a.3.3 0 00.3-.3c0-.17-.13-.31-.3-.31-.17 0-.3.14-.3.31 0 .16.13.3.3.3m-8.08-4.32c.16 0 .29-.12.29-.28 0-.15-.13-.28-.29-.28-.15 0-.27.13-.27.28 0 .16.12.28.27.28m-1.01-.27a.2.2 0 00.2-.2c0-.11-.09-.19-.2-.19-.11 0-.2.08-.2.19s.09.2.2.2m10.09 5.17c.14 0 .25-.12.25-.26s-.11-.26-.25-.26c-.15 0-.26.12-.26.26s.11.26.26.26m.94.35c.12 0 .22-.09.22-.21s-.1-.22-.22-.22-.21.1-.21.22.09.21.21.21m.91.19c.1 0 .18-.08.18-.18 0-.1-.08-.18-.18-.18-.1 0-.18.08-.18.18 0 .1.08.18.18.18m.87.09c.08 0 .14-.07.14-.15 0-.08-.06-.15-.14-.15-.09 0-.15.07-.15.15 0 .08.06.15.15.15"/></svg>