<svg xmlns="http://www.w3.org/2000/svg" width="261.91" height="123.78" viewBox="0 0 261.91 123.78">
	<style type="text/css">
		.st1{fill:#ffffff;fill-rule:evenodd;}
		.st0{fill:#ffffff;}
	</style>
	<path class="st0" d="M72.39,87.86L72.39,87.51C72.39,86.84 72.47,86.18 72.59,85.72C72.76,85.24 73.09,84.22 74.19,83.23C74.94,82.59 75.76,82.21 76.52,82.08C77.25,82.15 77.9,82.42 78.24,82.85C78.39,83.06 78.41,83.35 78.34,83.58C78.25,83.75 78.17,83.9 77.96,84.04C77.78,84.2 77.61,84.2 77.37,84C77.03,83.64 76.4,83.27 75.72,83.27C75.11,83.27 74.77,83.49 74.46,83.9C74.19,84.29 73.9,85.33 73.9,87.13L73.9,87.86L76.42,87.86C76.54,88.05 76.44,88.57 76.21,88.74L73.9,88.74L73.9,94.83C73.9,96.37 74.02,96.43 75.74,96.62L75.74,97.18L70.84,97.18L70.84,96.58C72.22,96.47 72.39,96.33 72.39,94.97L72.39,88.74L70.89,88.74L70.79,88.51L71.35,87.86Z"/>
	<path class="st0" d="M78.92,92.06C78.92,94.73 80.12,96.68 81.98,96.68C83.37,96.68 84.49,95.62 84.49,92.79C84.49,90.43 83.44,88.36 81.5,88.36C80.15,88.36 78.92,89.65 78.92,92.06M81.73,87.61C84.29,87.61 86.31,89.7 86.31,92.35C86.31,95.85 83.76,97.43 81.73,97.43C78.86,97.43 77.11,95.1 77.11,92.74C77.11,89.17 79.83,87.61 81.7,87.61Z"/>
	<path class="st0" d="M89.99,92.06C89.99,94.73 91.19,96.68 93.05,96.68C94.44,96.68 95.56,95.62 95.56,92.79C95.56,90.43 94.5,88.36 92.57,88.36C91.21,88.36 89.99,89.65 89.99,92.06M92.79,87.61C95.35,87.61 97.37,89.7 97.37,92.35C97.37,95.85 94.83,97.43 92.79,97.43C89.92,97.43 88.18,95.1 88.18,92.74C88.18,89.17 90.9,87.61 92.77,87.61Z"/>
	<path class="st0" d="M106.21,89.53C105.63,88.78 104.71,88.47 103.92,88.47C102.86,88.47 101.03,89.32 101.03,92.32C101.03,94.81 102.57,96.09 104,96.09C104.82,96.09 105.67,95.68 106.21,95.33ZM109.39,96.64C108.93,96.72 107.37,96.99 106.21,97.43L106.21,96.04L104.9,96.79C104.02,97.28 103.39,97.43 103.15,97.43C101.47,97.43 99.29,95.87 99.29,92.9C99.29,89.94 101.91,87.61 104.71,87.61C105.04,87.61 105.75,87.67 106.21,87.91L106.21,84.97C106.21,83.56 106.13,83.49 104.53,83.42L104.53,82.85C105.6,82.69 107,82.33 107.73,82.08L107.73,94.73C107.73,95.8 107.9,95.89 108.66,95.95L109.39,96.04Z"/>
	<path class="st0" d="M120.34,84.04C119.32,84.04 118.57,84.89 118.57,86.18C118.57,87.22 119.24,87.98 120.53,88.9C121.59,88.11 122.13,87.28 122.15,86.24C122.13,85.06 121.38,84.04 120.36,84.04ZM120.14,96.08C121.63,96.08 122.94,95.07 123.66,94.04C122.69,92.9 121.32,91.59 119.26,89.97C117.74,91.01 117.16,92 117.16,93.08C117.16,95.07 118.71,96.08 120.11,96.08ZM129.47,88.76C128,88.9 127.72,89.27 127.01,90.34C126.5,91.15 125.97,92.04 125.21,93.19C126.04,94.02 128.01,96.23 128.59,97.37L128.45,97.62C127.45,97.49 126.31,96.99 126.04,96.72C125.79,96.41 124.87,95.37 124.23,94.66C122.67,96.76 121.19,97.49 119.65,97.49C116.98,97.49 115.48,95.48 115.48,93.62C115.48,91.65 116.84,90.82 118.68,89.44C117.72,88.57 117.13,87.69 117.13,86.55C117.13,84.66 118.71,83.29 120.6,83.29C122.25,83.29 123.66,84.49 123.65,86.2C123.65,87.08 123.22,87.67 122.78,88.05C122.38,88.4 121.92,88.8 121.13,89.36C121.84,89.97 123.34,91.25 124.65,92.61C125.16,91.84 125.5,91.11 125.92,90.09C126.31,89.13 126.04,88.93 124.56,88.76L124.56,88.1L129.47,88.1Z"/>
	<path class="st0" d="M141.88,89.53C141.3,88.78 140.38,88.47 139.59,88.47C138.53,88.47 136.7,89.32 136.7,92.32C136.7,94.81 138.24,96.09 139.67,96.09C140.49,96.09 141.34,95.68 141.88,95.33ZM145.06,96.64C144.6,96.72 143.04,96.99 141.88,97.43L141.88,96.04L140.57,96.79C139.69,97.28 139.06,97.43 138.82,97.43C137.14,97.43 134.96,95.87 134.96,92.9C134.96,89.94 137.58,87.61 140.38,87.61C140.71,87.61 141.42,87.67 141.88,87.91L141.88,84.97C141.88,83.56 141.8,83.49 140.2,83.42L140.2,82.85C141.27,82.69 142.67,82.33 143.4,82.08L143.4,94.73C143.4,95.8 143.57,95.89 144.33,95.95L145.06,96.04Z"/>
	<path class="st0" d="M149.1,89.85C149.74,88.8 150.64,87.61 151.72,87.61C152.47,87.61 152.94,88.15 152.94,88.66C152.94,89.03 152.74,89.42 152.33,89.63C152.07,89.71 151.91,89.7 151.77,89.59C151.48,89.26 151.22,89.15 150.89,89.15C150.29,89.15 149.52,89.88 149.06,91.16L149.06,94.92C149.06,96.33 149.15,96.47 150.83,96.58L150.83,97.18L146.02,97.18L146.02,96.58C147.42,96.47 147.57,96.33 147.57,94.93L147.57,90.61C147.57,89.17 147.48,89.12 146.21,88.97L146.21,88.42C147.19,88.25 148.11,87.99 149.06,87.55L149.06,89.85Z"/>
	<path class="st0" d="M155.15,84.68C155.15,84.05 155.64,83.6 156.22,83.6C156.78,83.6 157.22,84.05 157.22,84.68C157.22,85.22 156.78,85.72 156.2,85.72C155.64,85.72 155.15,85.22 155.15,84.68M154.03,97.18L154.03,96.58C155.41,96.47 155.58,96.33 155.58,94.92L155.58,90.53C155.58,89.24 155.54,89.15 154.18,88.97L154.18,88.42C155.27,88.22 156.2,87.96 157.07,87.55L157.07,94.92C157.07,96.33 157.22,96.47 158.61,96.58L158.61,97.18Z"/>
	<path class="st0" d="M165.78,97.18L165.78,96.58C167.09,96.43 167.26,96.26 167.26,94.83L167.26,91.33C167.26,89.84 166.76,88.84 165.24,88.84C164.32,88.84 163.44,89.41 162.76,90.02L162.76,94.92C162.76,96.39 162.87,96.43 164.22,96.58L164.22,97.18L159.71,97.18L159.71,96.58C161.14,96.43 161.27,96.31 161.27,94.93L161.27,90.61C161.27,89.24 161.13,89.15 159.96,88.97L159.96,88.42C160.98,88.24 161.93,87.99 162.76,87.55L162.76,89.24C163.18,88.93 163.64,88.64 164.17,88.25C164.76,87.91 165.36,87.61 166.01,87.61C167.67,87.61 168.73,88.78 168.73,90.82L168.73,94.92C168.73,96.37 168.86,96.43 170.15,96.58L170.15,97.18Z"/>
	<path class="st0" d="M178.88,97.2C177.75,96.01 176.44,94.39 175.17,92.98C174.88,92.62 174.69,92.52 174.51,92.52C174.4,92.52 174.26,92.54 174.11,92.61L174.11,94.93C174.11,96.33 174.3,96.47 175.71,96.57L175.71,97.18L171.04,97.18L171.04,96.57C172.5,96.47 172.64,96.26 172.64,94.93L172.64,85.07C172.64,83.62 172.51,83.49 171.16,83.42L171.16,82.85C172.24,82.71 173.41,82.33 174.11,82.08L174.11,92.03C174.81,91.88 175.15,91.63 175.51,91.31C175.97,90.84 176.58,90 177,89.42C177.43,88.84 177.4,88.66 176.41,88.55L176.41,87.95L180.75,87.72L180.75,88.32C179.3,88.57 178.79,88.84 177.96,89.61C177.43,90.11 177.04,90.53 176.09,91.65C176.51,92.25 178.71,94.71 179.44,95.41C180.17,96.14 180.75,96.53 181.63,96.57L181.63,97.18Z"/>
	<path class="st0" d="M187.52,90.43C187.13,89.12 186.42,88.3 185.4,88.3C184.55,88.3 183.99,88.95 183.99,89.82C183.99,90.82 184.87,91.3 185.79,91.65C187.37,92.3 188.49,93.06 188.49,94.51C188.49,96.43 186.69,97.43 185.01,97.43C183.9,97.43 182.9,97.01 182.57,96.7C182.4,96.39 182.2,94.95 182.2,94.2L182.86,94.1C183.22,95.53 184.11,96.7 185.4,96.7C186.18,96.7 186.98,96.08 186.98,95.14C186.98,94.2 186.27,93.71 185.29,93.23C183.88,92.59 182.59,91.94 182.59,90.31C182.59,88.86 183.84,87.61 185.77,87.61C186.64,87.61 187.2,87.81 187.64,87.99C187.85,88.47 188.05,89.68 188.14,90.26Z"/>
	<path class="st0" d="M21.07,47.98C21.07,47.88 21.09,47.75 21.12,47.58L21.12,47.03C21.09,46.93 21.06,46.83 21.04,46.73C21.03,46.63 21.02,46.5 21.02,46.33C20.89,46.03 20.8,45.77 20.77,45.54C20.7,45.31 20.64,45.02 20.57,44.69C20.01,43.1 19.16,42 18.03,41.4C17.04,42.1 16.53,42.65 16.53,43.05L16.53,53.46L16.64,53.46C16.77,53.43 16.89,53.38 17.01,53.33C17.13,53.28 17.51,53.09 18.18,52.76L18.18,52.81C18.84,52.35 19.4,51.77 19.85,51.09C20.3,50.41 20.65,49.62 20.92,48.73C20.92,48.66 20.93,48.59 20.94,48.53C20.96,48.46 20.99,48.38 21.02,48.28C21.05,48.18 21.07,48.08 21.07,47.98M26.1,70.05L25.95,70.05L25.9,70.1L25.75,70.1L25.7,70.15L25.5,70.15C25.01,70.15 24.49,70.05 23.96,69.85C23.43,69.65 22.9,69.32 22.37,68.85C21.4,68.09 20.8,67.29 20.57,66.46L16.59,70.25C14.33,68.95 12.53,68.25 11.2,68.16L10.61,68.16C10.37,68.16 10.12,68.14 9.86,68.1C9.59,68.1 9.35,68.1 9.14,68.08C8.92,68.06 8.73,68.06 8.56,68.06C6.07,68.06 3.86,68.85 1.94,70.45C2.3,68.59 3.4,67.01 5.23,65.72C6.75,64.58 8.4,63.82 10.16,63.42C10.52,63.39 10.96,63.34 11.45,63.27C11.95,63.21 12.48,63.12 13.05,63.02C13.11,63.06 13.2,63.08 13.3,63.08C13.43,63.08 13.55,63.09 13.64,63.12C13.91,63.19 14.23,63.25 14.59,63.3C14.96,63.35 15.37,63.42 15.84,63.52C16,63.56 16.4,63.68 17.04,63.9C17.67,64.11 18.51,64.4 19.57,64.77L19.87,64.32L19.83,64.22C19.66,63.82 19.53,63.16 19.42,62.23C18.86,57.88 17.9,55.55 16.53,55.25L16.53,57.94C16.53,59.67 15.39,61.05 13.1,62.08C12.23,62.51 11.59,62.73 11.15,62.73L11.06,62.77L10.96,62.77L10.86,62.83L10.11,62.83C10.47,62.39 10.75,62 10.93,61.65C11.11,61.31 11.2,60.95 11.2,60.58L11.2,46.08C11.2,45.69 11.22,45.45 11.26,45.39C11.26,44.16 11.85,43.13 13.05,42.3L13.05,42.2L21.37,37.37C23.36,38.3 24.69,40.02 25.35,42.55C25.39,42.71 25.41,42.85 25.43,42.97C25.45,43.09 25.47,43.21 25.5,43.34C25.5,43.41 25.51,43.48 25.53,43.54C25.55,43.61 25.55,43.68 25.55,43.74L25.55,44.44C25.55,46.07 25.06,47.73 24.06,49.42C23.23,50.92 22.12,52.1 20.72,52.96C22.71,53.92 23.99,55.78 24.56,58.54C24.56,58.48 24.57,58.52 24.61,58.69C24.64,58.86 24.67,59.01 24.71,59.14C24.74,59.31 24.76,59.46 24.78,59.61C24.8,59.76 24.84,59.93 24.91,60.14C24.91,60.37 25.09,61.08 25.45,62.28C25.78,63.24 26.07,63.87 26.3,64.17C26.7,64.67 27.26,64.92 28,64.92C28.06,64.89 28.13,64.86 28.19,64.84C28.26,64.83 28.33,64.8 28.39,64.77L28.34,64.77C28.48,64.7 28.67,64.64 28.92,64.57C29.17,64.5 29.42,64.44 29.69,64.37ZM10.21,43.79L10.56,43.84C10.49,43.91 10.41,44.08 10.31,44.34C10.31,44.27 10.28,44.33 10.23,44.49C10.18,44.66 10.12,44.82 10.06,44.99C10.06,45.19 10.03,45.42 9.96,45.69L9.86,46.18L9.81,59.93C9.81,60.5 9.64,61.08 9.29,61.65C8.94,62.24 8.43,62.88 7.77,63.57C6.34,64.9 4.94,65.57 3.58,65.57C4.18,64.83 4.48,64.22 4.48,63.72L4.48,56.8L4.28,56.6L4.08,56.5L3.98,56.5L3.93,56.45C3.76,56.52 3.55,56.68 3.28,56.95C3.28,57.01 3.27,57.07 3.23,57.12C3.2,57.17 3.18,57.23 3.18,57.3L3.13,57.34L3.13,57.55L2.98,57.39L2.98,57.74C2.92,57.74 2.88,57.76 2.88,57.79L2.84,57.79L2.88,57.79C2.82,57.83 2.72,57.84 2.59,57.84C1.52,57.84 0.92,56.95 0.79,55.15L0.74,55.05L0.74,54.75C0.74,53.69 1.08,52.82 1.74,52.14C2.4,51.46 3.3,51.08 4.43,51.02L4.43,50.62L4.38,50.52L4.38,50.27C4.38,48.71 4.83,47.46 5.72,46.53C6.42,45.83 7.5,45.07 8.96,44.24C9.23,44.11 9.45,43.99 9.64,43.89C9.82,43.79 10.04,43.71 10.31,43.64ZM14.69,38.11C14.56,38.88 14.31,39.58 13.95,40.23C13.58,40.88 13.14,41.44 12.62,41.92C12.11,42.41 11.52,42.79 10.86,43.07C10.19,43.35 9.5,43.51 8.76,43.54L8.76,43.59L8.51,43.59C7.38,43.59 6.41,43.38 5.58,42.94L5.67,42.94L5.63,42.94C5.63,42.91 5.61,42.9 5.58,42.9C5.41,42.9 5.29,42.88 5.23,42.85L5.27,42.85C4.08,42.48 3.4,42.3 3.23,42.3C2.3,42.3 1.22,42.94 0,44.24L0,43.64C0,42.71 0.14,41.95 0.44,41.35C0.67,40.85 0.97,40.39 1.34,39.96C1.7,39.53 2.11,39.14 2.56,38.81C3.01,38.48 3.47,38.2 3.96,37.99C4.44,37.77 4.91,37.66 5.38,37.66L5.43,37.61L5.63,37.61C6.09,37.61 7.07,37.86 8.56,38.36L8.61,38.41L8.67,38.41C9.59,38.91 10.46,39.16 11.26,39.16L11.4,39.01C11.44,39.01 11.5,39.02 11.58,39.04C11.66,39.05 11.72,39.06 11.75,39.06L11.8,39.11C12,39.11 12.4,38.96 13,38.66C13.66,38.36 14.08,38.13 14.24,37.96C14.28,37.96 14.31,37.95 14.34,37.91Z"/>
	<path class="st0" d="M46.53,52.71C46.33,52.25 46.15,51.78 45.98,51.32L45.58,51.41L45.58,57.79L48.27,56.05C48.14,55.85 47.98,55.59 47.8,55.28C47.62,54.96 47.41,54.55 47.18,54.06C46.94,53.63 46.73,53.17 46.53,52.71M53.75,55.25C53.35,55.45 52.56,55.89 51.39,56.57C50.21,57.25 48.6,58.19 46.58,59.39C46.28,59.55 45.95,59.77 45.58,60.04L45.58,63.77C46.61,63.94 47.57,64.15 48.45,64.42C49.33,64.69 50.15,65 50.91,65.37L52.11,64.12L53.35,65.26L48.82,70.25L48.32,70C47.62,69.63 46.94,69.29 46.28,68.98C45.61,68.66 44.85,68.42 43.99,68.25C42.52,67.96 41.26,67.81 40.2,67.81C39.8,67.81 39.4,67.83 39.01,67.88C38.61,67.93 38.21,67.99 37.81,68.06C37.88,67.89 37.94,67.75 38.01,67.63C38.07,67.52 38.14,67.43 38.21,67.36L38.21,67.41C38.44,67.04 38.63,66.74 38.78,66.51C38.93,66.28 39.02,66.15 39.05,66.11C39.29,65.81 39.74,65.41 40.4,64.92L40.4,52.86C40.4,52.36 40.13,51.53 39.6,50.37L39.6,49.67L40.05,50.12L40.35,50.12L40.4,50.17L40.55,50.17L40.7,50.22L40.9,50.22C43.52,50.22 46.48,49.12 49.77,46.93C49.93,47.53 50.15,48.18 50.41,48.87C50.68,49.57 51.04,50.35 51.51,51.22C51.94,51.98 52.35,52.69 52.73,53.33C53.11,53.98 53.47,54.54 53.8,55Z"/>
	<path class="st0" d="M76.37,52.81C75.81,53.04 75.21,53.16 74.58,53.16C73.61,53.16 72.52,52.68 71.29,51.71C71.19,51.75 71.12,51.78 71.09,51.82L70.89,51.82C70.69,51.91 70.51,51.96 70.34,51.96L70.34,58.24L70.89,58.24C71.15,58.08 71.53,57.76 72.01,57.3C72.49,56.83 73.12,56.22 73.88,55.45C75.01,54.25 75.84,53.38 76.37,52.81M74.73,66.01L74.73,59.74L74.63,59.64L72.09,59.64L69.5,62.23C69.26,62.46 69,62.75 68.7,63.1C68.4,63.45 68.03,63.84 67.6,64.27C68,64.2 68.35,64.15 68.65,64.09C68.95,64.05 69.18,64.02 69.35,64.02C71.07,64.02 72.55,64.78 73.78,66.31L73.98,66.21C74.14,66.18 74.31,66.13 74.48,66.06L74.68,66.06ZM81.15,47.93C80.29,50.59 78.46,53.34 75.67,56.2L80.36,56.1C80.36,56.13 80.35,56.2 80.33,56.3C80.31,56.4 80.31,56.47 80.31,56.5C80.27,56.57 80.26,56.65 80.26,56.75L80.21,56.8L80.21,56.9L80.11,57L80.11,57.09L80.06,57.2C80.06,57.26 80.05,57.31 80.03,57.34C80.02,57.38 80.01,57.41 80.01,57.44L80.01,57.39C79.97,57.5 79.94,57.62 79.91,57.77C79.87,57.92 79.86,57.98 79.86,57.94L79.86,66.41C79.86,66.48 79.87,66.53 79.91,66.56L79.91,66.71L79.96,66.81L79.96,66.76C79.99,66.8 80.01,66.83 80.01,66.86L80.06,67.11L80.01,67.01C79.94,66.94 79.96,66.99 80.06,67.16C80.16,67.33 80.26,67.49 80.36,67.66L80.56,68.06C80.19,68.06 79.97,68.04 79.91,68.01L79.96,68.01C79.92,67.97 79.87,67.96 79.81,67.96C79.41,67.96 79.08,67.95 78.81,67.93C78.55,67.92 78.33,67.86 78.16,67.76C77.67,67.76 77.37,67.74 77.27,67.71L76.97,67.71C74.44,67.71 72.37,68.57 70.74,70.3L69.3,68.85C69.03,68.62 68.78,68.45 68.55,68.33C68.31,68.21 68.05,68.16 67.75,68.16C67.55,68.06 67.27,68.01 66.9,68.01C65.38,68.01 64.31,68.74 63.72,70.2L62.27,70.2C62.54,69.04 63,67.85 63.67,66.64C64.33,65.42 65.23,64.12 66.36,62.73L66.56,62.53C66.66,62.42 66.78,62.29 66.93,62.13C67.08,61.96 67.25,61.78 67.45,61.58L64.16,61.43L64.51,61.08L64.46,61.23C64.76,60.83 64.91,60.42 64.91,59.99L64.96,59.89L64.91,51.22C64.91,51.18 64.9,51.16 64.89,51.14C64.87,51.12 64.86,51.1 64.86,51.07L64.86,51.12C64.83,51.08 64.81,51 64.81,50.87L64.66,50.52L64.66,50.47C64.6,50.4 64.56,50.3 64.56,50.17L64.56,49.72C64.9,50.02 65.24,50.17 65.61,50.17C65.84,50.3 66.42,50.37 67.35,50.37C67.39,50.4 67.55,50.42 67.85,50.42C69.38,50.42 70.86,50.04 72.29,49.27C72.42,49.21 73.08,48.58 74.28,47.38C75.34,48.61 76.34,49.22 77.27,49.22C78.23,49.22 79.01,48.74 79.61,47.78L80.95,47.68Z"/>
	<path class="st0" d="M97.15,70.3C95.35,68.61 93.63,67.76 91.96,67.76C91.17,67.76 90.57,68.06 90.17,68.65L90.17,67.96C90.17,67.82 90.32,67.43 90.62,66.76C91.08,65.7 91.73,64.95 92.56,64.52L92.56,52.01L91.67,52.01C91.43,52.15 91.17,52.25 90.87,52.31C90.84,52.35 90.68,52.4 90.42,52.46L90.32,52.56L90.22,52.56L89.67,52.86L89.67,52.51C89.67,52.38 89.69,52.28 89.72,52.21L89.72,52.06L89.77,51.96C89.77,51.83 89.79,51.73 89.82,51.66L89.82,51.27C89.82,51.17 89.83,51.07 89.85,50.97C89.86,50.87 89.89,50.75 89.92,50.62L89.92,50.32L89.87,50.17L89.87,49.67C89.74,49.31 89.67,48.69 89.67,47.83C90.1,48.06 90.47,48.23 90.77,48.33C91.07,48.43 91.3,48.49 91.47,48.53C91.53,48.49 91.76,48.48 92.16,48.48L92.56,48.48L92.56,46.18L92.51,46.08L92.51,45.59C92.48,45.49 92.45,45.4 92.41,45.34C92.38,45.27 92.35,45.2 92.34,45.11C92.32,45.03 92.3,44.96 92.26,44.89L92.26,44.84C92.2,44.77 92.16,44.62 92.16,44.39L92.51,44.29L92.56,44.39L92.81,44.39L92.81,44.44C94.74,44.44 96.56,43.38 98.29,41.25L98.29,41.95L98.24,42C98.21,42.07 98.18,42.16 98.17,42.3C98.15,42.43 98.11,42.6 98.04,42.8L98.04,42.85C98.04,42.94 98.03,43.03 97.99,43.1C97.86,43.66 97.79,44.07 97.79,44.34L97.79,48.48L99.39,48.48L99.49,48.53C100.05,48.53 100.67,48.29 101.33,47.83C101.33,47.86 101.32,47.95 101.31,48.1C101.29,48.25 101.28,48.34 101.28,48.38C101.25,48.44 101.23,48.54 101.23,48.67C101.13,48.87 101.08,49.31 101.08,49.97L101.13,49.97C101.13,50.7 101.23,51.66 101.43,52.86L100.83,52.56L100.78,52.51L100.73,52.51C100.37,52.38 99.94,52.27 99.46,52.19C98.98,52.11 98.42,52.05 97.79,52.01L97.79,63.92C98.03,64.15 98.31,64.27 98.64,64.27C98.84,64.34 98.96,64.39 98.99,64.42C99.09,64.52 99.19,64.57 99.29,64.57C99.32,64.6 99.36,64.63 99.41,64.64C99.46,64.66 99.5,64.69 99.54,64.72L99.49,64.72C99.59,64.78 99.72,64.88 99.89,64.99C100.05,65.11 100.24,65.23 100.43,65.37L100.93,64.82L101.98,66.01Z"/>
	<path class="st0" d="M120.86,65.61L120.91,65.61L120.96,65.57L120.96,53.71C120.5,53.71 120,53.36 119.47,52.66C118.74,53.59 117.82,54.06 116.73,54.06L116.63,54.11L115.58,54.11L115.28,54.11C115.18,54.11 115.08,54.09 114.98,54.06L120.56,60.39L119.32,61.48L116.23,58.14C115.9,58.77 115.66,59.33 115.53,59.81C115.4,60.29 115.33,60.72 115.33,61.08C115.33,62.38 115.75,63.49 116.58,64.42C117.47,65.42 118.5,65.92 119.67,65.92C120.2,65.92 120.6,65.82 120.86,65.61M126.04,70.1L125.99,70.1L125.94,70.15L125.75,70.15L125.69,70.2L125.55,70.2L125.5,70.25L125.1,70.25C124.3,70.25 123.47,69.88 122.61,69.15C122.27,68.82 121.97,68.51 121.71,68.23C121.44,67.95 121.23,67.64 121.06,67.31L117.67,70.2L117.37,70.2C115.95,70.2 114.55,69.78 113.19,68.95C112.52,68.49 111.99,67.99 111.57,67.46C111.15,66.93 110.86,66.33 110.7,65.67C110.56,65.23 110.5,64.62 110.5,63.82C110.5,61.2 112.01,58.86 115.03,56.8C114.97,56.7 114.83,56.52 114.61,56.27C114.39,56.02 114.07,55.67 113.64,55.2C113.37,54.9 113.08,54.56 112.77,54.18C112.45,53.8 112.09,53.38 111.69,52.91L111.74,52.91C111.41,52.71 110.9,52.23 110.2,51.47C112.59,50.6 114.5,49.31 115.93,47.58L116.18,47.88L116.23,47.98C116.39,48.15 116.63,48.43 116.93,48.85C117.22,49.27 117.46,49.6 117.62,49.87L117.62,49.82C118.19,50.55 118.77,50.92 119.37,50.92L119.27,50.92L119.52,50.82C119.58,50.89 119.65,50.92 119.72,50.92C120.38,50.92 121.39,50.02 122.76,48.23L122.8,48.13C122.87,48.03 122.93,47.95 122.98,47.88C123.03,47.81 123.19,47.65 123.45,47.38C123.45,47.68 123.47,47.84 123.5,47.88C123.47,47.88 123.49,47.94 123.58,48.05C123.66,48.17 123.77,48.29 123.9,48.43L123.9,48.38C124.76,49.44 125.59,49.97 126.39,49.97C126.76,49.97 127.39,49.82 128.28,49.52L128.28,49.92C128.28,51.35 127.57,52.48 126.14,53.31L126.14,63.62C126.14,64.25 126.38,64.76 126.84,65.14C127.3,65.52 127.89,65.73 128.59,65.77L128.63,65.72L129.18,65.72Z"/>
	<path class="st0" d="M154.94,70.25C152.35,69.62 150.87,68.22 150.5,66.06C150.44,66.1 150.4,66.13 150.38,66.16C150.36,66.2 150.32,66.23 150.26,66.26C149.89,66.5 149.48,66.78 149.01,67.11C148.55,67.44 147.98,67.84 147.32,68.31C147.02,68.54 146.69,68.81 146.34,69.13C146,69.44 145.59,69.83 145.13,70.3C143.03,68.37 141.29,67.41 139.89,67.41C139.23,67.41 138.68,67.57 138.25,67.91C138.55,66.21 139.28,65.07 140.44,64.47L140.44,53.81C140.27,53.38 139.93,53.01 139.4,52.71L139.44,52.76C139.28,52.69 139.08,52.64 138.85,52.61C138.61,52.58 138.42,52.53 138.25,52.46C138.18,52.43 138.12,52.41 138.05,52.41L137.6,52.41L137.6,52.06L142.43,47.08C144.69,48.24 145.82,49.75 145.82,51.62L145.82,63.82C146.02,63.99 146.54,64.19 147.37,64.42C147.33,64.42 147.27,64.4 147.17,64.37C147.07,64.34 147.05,64.34 147.12,64.37C147.42,64.57 147.67,64.74 147.89,64.89C148.1,65.04 148.28,65.17 148.41,65.26L148.51,65.17L148.61,65.12C148.68,65.08 148.72,65.05 148.74,65.02C148.75,64.98 148.79,64.95 148.86,64.92L148.86,64.97C148.99,64.9 149.13,64.8 149.26,64.67C149.39,64.54 149.59,64.37 149.86,64.17C149.96,64.17 150.06,64.12 150.16,64.02L150.46,63.87L150.36,53.36L150.31,53.36L150.21,53.31L150.06,53.26C149.99,53.19 149.92,53.12 149.83,53.03C149.75,52.95 149.64,52.83 149.51,52.66L148.51,53.16L147.57,51.76C148.63,51.43 150.42,50 152.95,47.48C154.64,49.27 155.85,50.17 156.58,50.17C156.88,50.17 157.13,50.14 157.33,50.07L157.43,49.97L157.48,49.92L157.58,49.92L157.63,49.87L157.73,49.87L157.78,49.82L158.13,49.82C158.13,51.81 157.3,53.06 155.64,53.56L155.64,63.32C155.64,65.02 156.43,65.86 158.03,65.86L158.13,65.86L158.23,65.81C158.49,65.81 158.87,65.72 159.37,65.51L159.57,65.86Z"/>
	<path class="st0" d="M183.19,53.36C182.42,54.19 181.44,54.6 180.25,54.6C179.29,54.6 178.35,54.17 177.46,53.31L176.11,54.71L176.11,63.67C176.18,63.71 176.28,63.74 176.41,63.77C176.54,63.81 176.69,63.84 176.86,63.87L176.81,63.87C177.47,63.94 178.16,64.32 178.85,65.02L179.75,64.12L180.84,65.32L175.71,70.3C173.85,68.54 172.11,67.66 170.48,67.66C170.15,67.66 169.86,67.7 169.61,67.78C169.36,67.87 169.1,67.94 168.84,68.01L168.19,68.26C168.19,67.23 168.71,66.2 169.74,65.17C169.94,64.97 170.11,64.82 170.26,64.72C170.41,64.62 170.53,64.54 170.63,64.47L170.53,64.52L170.68,64.37L170.83,64.37L170.88,64.32L170.88,54.01C170.65,53.68 170.39,53.4 170.11,53.18C169.83,52.97 169.5,52.78 169.14,52.61C169.04,52.58 168.89,52.53 168.69,52.46C168.62,52.43 168.48,52.39 168.27,52.34C168.05,52.29 167.89,52.25 167.79,52.21C169.85,51.02 171.46,49.29 172.63,47.03C174.38,47.93 175.55,49.52 176.11,51.82L176.56,51.22C176.73,51.05 176.89,50.88 177.06,50.69C177.23,50.51 177.41,50.3 177.61,50.07C178.24,49.44 178.94,48.53 179.7,47.33L179.7,47.18L180.1,47.13C180.7,49.02 181.58,49.97 182.74,49.97C183.14,49.97 183.67,49.67 184.33,49.08L184.33,50.22C184.33,51.48 183.95,52.53 183.19,53.36"/>
	<path class="st0" d="M203.32,65.61L203.37,65.61L203.42,65.57L203.42,53.71C202.95,53.71 202.45,53.36 201.92,52.66C201.19,53.59 200.28,54.06 199.18,54.06L199.08,54.11L198.04,54.11L197.74,54.11C197.64,54.11 197.54,54.09 197.44,54.06L203.02,60.39L201.77,61.48L198.68,58.14C198.35,58.77 198.12,59.33 197.98,59.81C197.85,60.29 197.79,60.72 197.79,61.08C197.79,62.38 198.2,63.49 199.03,64.42C199.93,65.42 200.96,65.92 202.12,65.92C202.65,65.92 203.05,65.82 203.32,65.61M208.5,70.1L208.45,70.1L208.4,70.15L208.2,70.15L208.15,70.2L208,70.2L207.95,70.25L207.55,70.25C206.75,70.25 205.92,69.88 205.06,69.15C204.73,68.82 204.43,68.51 204.17,68.23C203.9,67.95 203.68,67.64 203.52,67.31L200.13,70.2L199.83,70.2C198.4,70.2 197.01,69.78 195.64,68.95C194.98,68.49 194.44,67.99 194.03,67.46C193.61,66.93 193.32,66.33 193.15,65.67C193.02,65.23 192.95,64.62 192.95,63.82C192.95,61.2 194.46,58.86 197.49,56.8C197.42,56.7 197.28,56.52 197.06,56.27C196.85,56.02 196.52,55.67 196.09,55.2C195.83,54.9 195.54,54.56 195.22,54.18C194.91,53.8 194.55,53.38 194.15,52.91L194.2,52.91C193.87,52.71 193.35,52.23 192.65,51.47C195.05,50.6 196.96,49.31 198.38,47.58L198.63,47.88L198.68,47.98C198.85,48.15 199.08,48.43 199.38,48.85C199.68,49.27 199.91,49.6 200.08,49.87L200.08,49.82C200.64,50.55 201.22,50.92 201.82,50.92L201.72,50.92L201.97,50.82C202.04,50.89 202.1,50.92 202.17,50.92C202.84,50.92 203.85,50.02 205.21,48.23L205.26,48.13C205.33,48.03 205.38,47.95 205.43,47.88C205.48,47.81 205.64,47.65 205.91,47.38C205.91,47.68 205.92,47.84 205.96,47.88C205.92,47.88 205.95,47.94 206.03,48.05C206.12,48.17 206.22,48.29 206.35,48.43L206.35,48.38C207.22,49.44 208.05,49.97 208.85,49.97C209.21,49.97 209.84,49.82 210.74,49.52L210.74,49.92C210.74,51.35 210.03,52.48 208.6,53.31L208.6,63.62C208.6,64.25 208.83,64.76 209.3,65.14C209.76,65.52 210.34,65.73 211.04,65.77L211.09,65.72L211.64,65.72Z"/>
	<path class="st0" d="M237.05,70.35C236.58,70.32 236.12,70.2 235.65,70C235.19,69.8 234.73,69.53 234.3,69.2C233.51,68.57 233.11,67.79 233.11,66.86L233.11,53.81C232.98,53.81 232.88,53.79 232.81,53.76L232.71,53.76L232.66,53.71L232.46,53.61L232.51,53.61C231.98,53.48 231.55,53.29 231.22,53.06C230.88,52.83 230.59,52.53 230.32,52.16L228.28,53.81L228.28,64.27C228.68,64.44 229.04,64.6 229.37,64.77C229.7,64.94 229.97,65.1 230.17,65.26C230.54,65.5 230.86,65.76 231.14,66.04C231.42,66.32 231.68,66.61 231.91,66.91L227.28,70.25C225.49,68.56 223.66,67.71 221.8,67.71L221.65,67.71L221.6,67.76L221.35,67.76L221.3,67.81L221.1,67.81L221.05,67.86L220.55,67.86C220.82,66.56 221.6,65.53 222.9,64.77L222.9,53.56C222.3,52.56 221.47,52.06 220.4,52.06L220.31,52.01L220.06,52.01L220.06,51.66L225.14,46.58C225.67,47.05 226.12,47.47 226.51,47.85C226.89,48.24 227.2,48.61 227.43,48.98C227.96,49.81 228.24,50.68 228.28,51.62L234.16,46.68C235.55,48.61 236.63,49.57 237.39,49.57C237.76,49.57 238.61,49.29 239.93,48.73L239.93,49.42L239.89,49.52L239.89,50.02L239.84,50.12C239.84,50.92 239.39,51.76 238.49,52.66L238.49,64.27C238.49,64.94 238.99,65.26 239.98,65.26L240.18,65.26L240.23,65.22L240.63,65.22L240.68,65.17L241.33,65.17Z"/>
	<path class="st0" d="M257.07,70.3C255.28,68.61 253.55,67.76 251.89,67.76C251.09,67.76 250.5,68.06 250.1,68.65L250.1,67.96C250.1,67.82 250.25,67.43 250.55,66.76C251.01,65.7 251.66,64.95 252.49,64.52L252.49,52.01L251.59,52.01C251.36,52.15 251.09,52.25 250.8,52.31C250.76,52.35 250.61,52.4 250.35,52.46L250.25,52.56L250.15,52.56L249.6,52.86L249.6,52.51C249.6,52.38 249.61,52.28 249.65,52.21L249.65,52.06L249.7,51.96C249.7,51.83 249.72,51.73 249.75,51.66L249.75,51.27C249.75,51.17 249.76,51.07 249.77,50.97C249.79,50.87 249.82,50.75 249.85,50.62L249.85,50.32L249.8,50.17L249.8,49.67C249.67,49.31 249.6,48.69 249.6,47.83C250.03,48.06 250.4,48.23 250.7,48.33C251,48.43 251.23,48.49 251.39,48.53C251.46,48.49 251.69,48.48 252.09,48.48L252.49,48.48L252.49,46.18L252.44,46.08L252.44,45.59C252.41,45.49 252.37,45.4 252.34,45.34C252.31,45.27 252.28,45.2 252.26,45.11C252.25,45.03 252.22,44.96 252.19,44.89L252.19,44.84C252.12,44.77 252.09,44.62 252.09,44.39L252.44,44.29L252.49,44.39L252.74,44.39L252.74,44.44C254.67,44.44 256.49,43.38 258.22,41.25L258.22,41.95L258.17,42C258.14,42.07 258.11,42.16 258.09,42.3C258.08,42.43 258.04,42.6 257.97,42.8L257.97,42.85C257.97,42.94 257.95,43.03 257.92,43.1C257.79,43.66 257.72,44.07 257.72,44.34L257.72,48.48L259.32,48.48L259.42,48.53C259.98,48.53 260.59,48.29 261.26,47.83C261.26,47.86 261.25,47.95 261.23,48.1C261.22,48.25 261.21,48.34 261.21,48.38C261.18,48.44 261.16,48.54 261.16,48.67C261.06,48.87 261.01,49.31 261.01,49.97L261.06,49.97C261.06,50.7 261.16,51.66 261.36,52.86L260.76,52.56L260.71,52.51L260.66,52.51C260.3,52.38 259.87,52.27 259.39,52.19C258.91,52.11 258.35,52.05 257.72,52.01L257.72,63.92C257.95,64.15 258.24,64.27 258.57,64.27C258.77,64.34 258.88,64.39 258.92,64.42C259.02,64.52 259.12,64.57 259.22,64.57C259.25,64.6 259.29,64.63 259.34,64.64C259.39,64.66 259.43,64.69 259.47,64.72L259.42,64.72C259.51,64.78 259.65,64.88 259.81,64.99C259.98,65.11 260.16,65.23 260.36,65.37L260.86,64.82L261.91,66.01Z"/>
	<path class="st1" d="M122.47,3.3C114.04,2.27 108.12,7.37 101.81,12.21C98.67,14.61 95.24,16.55 91.78,18.06C89.74,18.95 78.8,23.15 70.99,17.9C79.54,22.43 89.08,17.57 90.71,16.78C97.78,13.34 100.44,10.63 104.74,7.86C111.91,3.24 116.54,2.32 122.47,3.3"/>
	<path class="st1" d="M112.07,3.45C103.14,0.67 94.54,7.96 84.27,14.41C82.38,15.59 80.29,16.72 78.25,17.53C72.45,19.63 66,19.38 61.84,13.77C57.64,6.96 60.5,1.41 64.13,0.25C68.34,-1.08 71.98,3.11 72.39,7.28C72.56,8.98 71.99,10.64 71.02,11.97C70.05,13.32 67.35,14.46 65.29,11.48C67.57,14.21 69.98,13.1 70.94,11.67C73.54,7.77 70.1,0.33 64.97,1.08C61.33,1.61 58.8,6.93 62.03,12.73C63.03,14.54 65.09,16.01 66.83,16.85C72.58,19.62 77.97,15.88 83.15,12.82C89.72,8.93 95.15,5.3 102,3.34C105.74,2.28 108.67,2.19 112.07,3.45"/>
	<path class="st1" d="M90.27,12.31C90.97,12.31 91.54,12.88 91.54,13.58C91.54,14.28 90.97,14.85 90.27,14.85C89.57,14.85 89,14.28 89,13.58C89,12.88 89.57,12.31 90.27,12.31"/>
	<path class="st1" d="M94.1,10.22C94.69,10.22 95.17,10.7 95.17,11.29C95.17,11.88 94.69,12.36 94.1,12.36C93.51,12.36 93.03,11.88 93.03,11.29C93.03,10.7 93.51,10.22 94.1,10.22"/>
	<path class="st1" d="M86.41,14.62C86.99,14.62 87.47,15.1 87.47,15.68C87.47,16.26 86.99,16.73 86.41,16.73C85.83,16.73 85.35,16.26 85.35,15.68C85.35,15.1 85.83,14.62 86.41,14.62"/>
	<path class="st1" d="M97.43,8.29C97.94,8.29 98.37,8.71 98.37,9.23C98.37,9.74 97.94,10.17 97.43,10.17C96.91,10.17 96.49,9.74 96.49,9.23C96.49,8.71 96.91,8.29 97.43,8.29"/>
	<path class="st1" d="M82.82,16.6C83.32,16.6 83.72,17 83.72,17.5C83.72,17.99 83.32,18.39 82.82,18.39C82.33,18.39 81.93,17.99 81.93,17.5C81.93,17 82.33,16.6 82.82,16.6"/>
	<path class="st1" d="M100.34,6.6C100.77,6.6 101.12,6.95 101.12,7.38C101.12,7.81 100.77,8.16 100.34,8.16C99.91,8.16 99.56,7.81 99.56,7.38C99.56,6.95 99.91,6.6 100.34,6.6"/>
	<path class="st1" d="M79.63,17.67C80.02,17.67 80.34,18 80.34,18.39C80.34,18.79 80.02,19.11 79.63,19.11C79.23,19.11 78.91,18.79 78.91,18.39C78.91,18 79.23,17.67 79.63,17.67"/>
	<path class="st1" d="M77.02,18.37C77.29,18.37 77.52,18.6 77.52,18.88C77.52,19.16 77.29,19.39 77.02,19.39C76.74,19.39 76.51,19.16 76.51,18.88C76.51,18.6 76.74,18.37 77.02,18.37"/>
	<path class="st1" d="M102.89,5.12C103.25,5.12 103.55,5.42 103.55,5.78C103.55,6.15 103.25,6.44 102.89,6.44C102.53,6.44 102.23,6.15 102.23,5.78C102.23,5.42 102.53,5.12 102.89,5.12"/>
	<path class="st1" d="M105.32,4.21C105.62,4.21 105.87,4.46 105.87,4.76C105.87,5.07 105.62,5.32 105.32,5.32C105.01,5.32 104.76,5.07 104.76,4.76C104.76,4.46 105.01,4.21 105.32,4.21"/>
	<path class="st1" d="M107.65,3.72C107.91,3.72 108.12,3.93 108.12,4.18C108.12,4.44 107.91,4.65 107.65,4.65C107.39,4.65 107.18,4.44 107.18,4.18C107.18,3.93 107.39,3.72 107.65,3.72"/>
	<path class="st1" d="M109.87,3.5C110.08,3.5 110.25,3.67 110.25,3.88C110.25,4.08 110.08,4.26 109.87,4.26C109.66,4.26 109.49,4.08 109.49,3.88C109.49,3.67 109.66,3.5 109.87,3.5"/>
	<path class="st1" d="M131.45,3.3C139.88,2.27 145.8,7.37 152.1,12.21C155.24,14.61 158.68,16.55 162.13,18.06C164.18,18.95 175.12,23.15 182.92,17.9C174.38,22.43 164.84,17.57 163.21,16.78C156.14,13.34 153.48,10.63 149.18,7.86C142.01,3.24 137.37,2.32 131.45,3.3"/>
	<path class="st1" d="M141.85,3.45C150.78,0.67 159.38,7.96 169.65,14.41C171.54,15.59 173.63,16.72 175.66,17.53C181.47,19.63 187.91,19.38 192.08,13.77C196.27,6.96 193.42,1.41 189.78,0.25C185.58,-1.08 181.93,3.11 181.52,7.28C181.36,8.98 181.93,10.64 182.89,11.97C183.87,13.32 186.57,14.46 188.63,11.48C186.35,14.21 183.94,13.1 182.98,11.67C180.38,7.77 183.81,0.33 188.94,1.08C192.59,1.61 195.12,6.93 191.89,12.73C190.89,14.54 188.83,16.01 187.09,16.85C181.34,19.62 175.95,15.88 170.77,12.82C164.2,8.93 158.76,5.3 151.92,3.34C148.18,2.28 145.25,2.19 141.85,3.45"/>
	<path class="st1" d="M163.65,12.31C162.95,12.31 162.38,12.88 162.38,13.58C162.38,14.28 162.95,14.85 163.65,14.85C164.35,14.85 164.92,14.28 164.92,13.58C164.92,12.88 164.35,12.31 163.65,12.31"/>
	<path class="st1" d="M159.82,10.22C159.23,10.22 158.75,10.7 158.75,11.29C158.75,11.88 159.23,12.36 159.82,12.36C160.41,12.36 160.89,11.88 160.89,11.29C160.89,10.7 160.41,10.22 159.82,10.22"/>
	<path class="st1" d="M167.51,14.62C166.92,14.62 166.45,15.1 166.45,15.68C166.45,16.26 166.92,16.73 167.51,16.73C168.09,16.73 168.56,16.26 168.56,15.68C168.56,15.1 168.09,14.62 167.51,14.62"/>
	<path class="st1" d="M156.49,8.29C155.97,8.29 155.55,8.71 155.55,9.23C155.55,9.74 155.97,10.17 156.49,10.17C157.01,10.17 157.43,9.74 157.43,9.23C157.43,8.71 157.01,8.29 156.49,8.29"/>
	<path class="st1" d="M171.09,16.6C170.6,16.6 170.2,17 170.2,17.5C170.2,17.99 170.6,18.39 171.09,18.39C171.59,18.39 171.99,17.99 171.99,17.5C171.99,17 171.59,16.6 171.09,16.6"/>
	<path class="st1" d="M153.58,6.6C153.15,6.6 152.8,6.95 152.8,7.38C152.8,7.81 153.15,8.16 153.58,8.16C154.01,8.16 154.36,7.81 154.36,7.38C154.36,6.95 154.01,6.6 153.58,6.6"/>
	<path class="st1" d="M174.29,17.67C173.9,17.67 173.57,18 173.57,18.39C173.57,18.79 173.9,19.11 174.29,19.11C174.69,19.11 175.01,18.79 175.01,18.39C175.01,18 174.69,17.67 174.29,17.67"/>
	<path class="st1" d="M176.9,18.37C176.62,18.37 176.4,18.6 176.4,18.88C176.4,19.16 176.62,19.39 176.9,19.39C177.18,19.39 177.41,19.16 177.41,18.88C177.41,18.6 177.18,18.37 176.9,18.37"/>
	<path class="st1" d="M151.03,5.12C150.66,5.12 150.37,5.42 150.37,5.78C150.37,6.15 150.66,6.44 151.03,6.44C151.39,6.44 151.68,6.15 151.68,5.78C151.68,5.42 151.39,5.12 151.03,5.12"/>
	<path class="st1" d="M148.6,4.21C148.3,4.21 148.05,4.46 148.05,4.76C148.05,5.07 148.3,5.32 148.6,5.32C148.9,5.32 149.15,5.07 149.15,4.76C149.15,4.46 148.9,4.21 148.6,4.21"/>
	<path class="st1" d="M146.27,3.72C146.01,3.72 145.8,3.93 145.8,4.18C145.8,4.44 146.01,4.65 146.27,4.65C146.52,4.65 146.73,4.44 146.73,4.18C146.73,3.93 146.52,3.72 146.27,3.72"/>
	<path class="st1" d="M144.05,3.5C143.84,3.5 143.67,3.67 143.67,3.88C143.67,4.08 143.84,4.26 144.05,4.26C144.26,4.26 144.43,4.08 144.43,3.88C144.43,3.67 144.26,3.5 144.05,3.5"/>
	<path class="st1" d="M128.71,122.49C132,122.89 134.3,120.9 136.76,119.02C137.98,118.08 139.32,117.32 140.67,116.73C141.47,116.39 145.73,114.75 148.78,116.8C145.44,115.03 141.73,116.92 141.09,117.23C138.33,118.57 137.3,119.63 135.62,120.71C132.83,122.51 131.02,122.87 128.71,122.49"/>
	<path class="st1" d="M132.76,122.43C136.24,123.51 139.6,120.67 143.6,118.16C144.34,117.69 145.15,117.25 145.95,116.94C148.21,116.12 150.72,116.22 152.35,118.4C153.98,121.06 152.87,123.23 151.45,123.68C149.81,124.2 148.39,122.56 148.23,120.93C148.17,120.27 148.39,119.63 148.77,119.11C149.15,118.58 150.2,118.14 151,119.3C150.11,118.23 149.17,118.66 148.8,119.23C147.78,120.74 149.12,123.65 151.12,123.35C152.54,123.15 153.53,121.07 152.27,118.81C151.88,118.1 151.08,117.53 150.4,117.21C148.16,116.12 146.06,117.58 144.04,118.78C141.48,120.29 139.36,121.71 136.69,122.47C135.23,122.89 134.09,122.92 132.76,122.43"/>
	<path class="st1" d="M141.26,118.98C140.99,118.98 140.77,118.75 140.77,118.48C140.77,118.21 140.99,117.99 141.26,117.99C141.53,117.99 141.76,118.21 141.76,118.48C141.76,118.75 141.53,118.98 141.26,118.98"/>
	<path class="st1" d="M139.77,119.79C139.54,119.79 139.35,119.6 139.35,119.37C139.35,119.14 139.54,118.96 139.77,118.96C140,118.96 140.18,119.14 140.18,119.37C140.18,119.6 140,119.79 139.77,119.79"/>
	<path class="st1" d="M142.77,118.07C142.54,118.07 142.36,117.89 142.36,117.66C142.36,117.43 142.54,117.25 142.77,117.25C142.99,117.25 143.18,117.43 143.18,117.66C143.18,117.89 142.99,118.07 142.77,118.07"/>
	<path class="st1" d="M138.47,120.54C138.27,120.54 138.1,120.38 138.1,120.18C138.1,119.98 138.27,119.81 138.47,119.81C138.67,119.81 138.84,119.98 138.84,120.18C138.84,120.38 138.67,120.54 138.47,120.54"/>
	<path class="st1" d="M144.16,117.3C143.97,117.3 143.82,117.15 143.82,116.95C143.82,116.76 143.97,116.6 144.16,116.6C144.36,116.6 144.51,116.76 144.51,116.95C144.51,117.15 144.36,117.3 144.16,117.3"/>
	<path class="st1" d="M137.34,121.2C137.17,121.2 137.03,121.06 137.03,120.9C137.03,120.73 137.17,120.59 137.34,120.59C137.5,120.59 137.64,120.73 137.64,120.9C137.64,121.06 137.5,121.2 137.34,121.2"/>
	<path class="st1" d="M145.41,116.88C145.26,116.88 145.13,116.76 145.13,116.6C145.13,116.45 145.26,116.32 145.41,116.32C145.57,116.32 145.69,116.45 145.69,116.6C145.69,116.76 145.57,116.88 145.41,116.88"/>
	<path class="st1" d="M146.43,116.61C146.32,116.61 146.23,116.52 146.23,116.41C146.23,116.3 146.32,116.22 146.43,116.22C146.54,116.22 146.63,116.3 146.63,116.41C146.63,116.52 146.54,116.61 146.43,116.61"/>
	<path class="st1" d="M136.34,121.78C136.2,121.78 136.08,121.66 136.08,121.52C136.08,121.38 136.2,121.26 136.34,121.26C136.48,121.26 136.6,121.38 136.6,121.52C136.6,121.66 136.48,121.78 136.34,121.78"/>
	<path class="st1" d="M135.4,122.13C135.28,122.13 135.18,122.04 135.18,121.92C135.18,121.8 135.28,121.7 135.4,121.7C135.51,121.7 135.61,121.8 135.61,121.92C135.61,122.04 135.51,122.13 135.4,122.13"/>
	<path class="st1" d="M134.49,122.32C134.39,122.32 134.3,122.24 134.3,122.14C134.3,122.04 134.39,121.96 134.49,121.96C134.59,121.96 134.67,122.04 134.67,122.14C134.67,122.24 134.59,122.32 134.49,122.32"/>
	<path class="st1" d="M133.62,122.41C133.54,122.41 133.47,122.34 133.47,122.26C133.47,122.18 133.54,122.11 133.62,122.11C133.7,122.11 133.77,122.18 133.77,122.26C133.77,122.34 133.7,122.41 133.62,122.41"/>
	<path class="st1" d="M125.21,122.49C121.92,122.89 119.61,120.9 117.15,119.02C115.93,118.08 114.59,117.32 113.24,116.73C112.45,116.39 108.18,114.75 105.14,116.8C108.47,115.03 112.19,116.92 112.83,117.23C115.58,118.57 116.62,119.63 118.3,120.71C121.09,122.51 122.9,122.87 125.21,122.49"/>
	<path class="st1" d="M121.15,122.43C117.67,123.51 114.32,120.67 110.31,118.16C109.58,117.69 108.76,117.25 107.97,116.94C105.71,116.12 103.2,116.22 101.57,118.4C99.93,121.06 101.05,123.23 102.47,123.68C104.1,124.2 105.53,122.56 105.69,120.93C105.75,120.27 105.53,119.63 105.15,119.11C104.77,118.58 103.72,118.14 102.92,119.3C103.8,118.23 104.74,118.66 105.12,119.23C106.13,120.74 104.79,123.65 102.79,123.35C101.37,123.15 100.39,121.07 101.65,118.81C102.04,118.1 102.84,117.53 103.52,117.21C105.76,116.12 107.86,117.58 109.88,118.78C112.44,120.29 114.56,121.71 117.23,122.47C118.68,122.89 119.83,122.92 121.15,122.43"/>
	<path class="st1" d="M112.66,118.98C112.93,118.98 113.15,118.75 113.15,118.48C113.15,118.21 112.93,117.99 112.66,117.99C112.38,117.99 112.16,118.21 112.16,118.48C112.16,118.75 112.38,118.98 112.66,118.98"/>
	<path class="st1" d="M114.15,119.79C114.38,119.79 114.56,119.6 114.56,119.37C114.56,119.14 114.38,118.96 114.15,118.96C113.92,118.96 113.73,119.14 113.73,119.37C113.73,119.6 113.92,119.79 114.15,119.79"/>
	<path class="st1" d="M111.15,118.07C111.38,118.07 111.56,117.89 111.56,117.66C111.56,117.43 111.38,117.25 111.15,117.25C110.92,117.25 110.74,117.43 110.74,117.66C110.74,117.89 110.92,118.07 111.15,118.07"/>
	<path class="st1" d="M115.45,120.54C115.65,120.54 115.81,120.38 115.81,120.18C115.81,119.98 115.65,119.81 115.45,119.81C115.25,119.81 115.08,119.98 115.08,120.18C115.08,120.38 115.25,120.54 115.45,120.54"/>
	<path class="st1" d="M109.75,117.3C109.94,117.3 110.1,117.15 110.1,116.95C110.1,116.76 109.94,116.6 109.75,116.6C109.56,116.6 109.4,116.76 109.4,116.95C109.4,117.15 109.56,117.3 109.75,117.3"/>
	<path class="st1" d="M116.58,121.2C116.75,121.2 116.88,121.06 116.88,120.9C116.88,120.73 116.75,120.59 116.58,120.59C116.41,120.59 116.28,120.73 116.28,120.9C116.28,121.06 116.41,121.2 116.58,121.2"/>
	<path class="st1" d="M108.5,116.88C108.66,116.88 108.79,116.76 108.79,116.6C108.79,116.45 108.66,116.32 108.5,116.32C108.35,116.32 108.23,116.45 108.23,116.6C108.23,116.76 108.35,116.88 108.5,116.88"/>
	<path class="st1" d="M107.49,116.61C107.6,116.61 107.69,116.52 107.69,116.41C107.69,116.3 107.6,116.22 107.49,116.22C107.38,116.22 107.29,116.3 107.29,116.41C107.29,116.52 107.38,116.61 107.49,116.61"/>
	<path class="st1" d="M117.58,121.78C117.72,121.78 117.83,121.66 117.83,121.52C117.83,121.38 117.72,121.26 117.58,121.26C117.43,121.26 117.32,121.38 117.32,121.52C117.32,121.66 117.43,121.78 117.58,121.78"/>
	<path class="st1" d="M118.52,122.13C118.64,122.13 118.74,122.04 118.74,121.92C118.74,121.8 118.64,121.7 118.52,121.7C118.4,121.7 118.31,121.8 118.31,121.92C118.31,122.04 118.4,122.13 118.52,122.13"/>
	<path class="st1" d="M119.43,122.32C119.53,122.32 119.61,122.24 119.61,122.14C119.61,122.04 119.53,121.96 119.43,121.96C119.33,121.96 119.25,122.04 119.25,122.14C119.25,122.24 119.33,122.32 119.43,122.32"/>
	<path class="st1" d="M120.3,122.41C120.38,122.41 120.44,122.34 120.44,122.26C120.44,122.18 120.38,122.11 120.3,122.11C120.21,122.11 120.15,122.18 120.15,122.26C120.15,122.34 120.21,122.41 120.3,122.41"/>
</svg>